<svg version="1.1" id="Layer_1" xmlns="http://www.w3.org/2000/svg" xmlns:xlink="http://www.w3.org/1999/xlink" x="0px" y="0px"
	 width="100%" viewBox="0 0 241 70" enable-background="new 0 0 241 70" xml:space="preserve">
<path fill="#000000" opacity="1.000000" stroke="none" 
	d="
M178.000000,71.000000 
	C118.666687,71.000000 59.833370,71.000000 1.000039,71.000000 
	C1.000026,47.666691 1.000026,24.333382 1.000013,1.000055 
	C81.333282,1.000037 161.666565,1.000037 241.999878,1.000018 
	C241.999924,24.333277 241.999924,47.666553 241.999969,70.999916 
	C220.833328,71.000000 199.666672,71.000000 178.000000,71.000000 
M41.985722,44.387444 
	C42.146427,44.471210 42.307133,44.554981 42.467838,44.638748 
	C42.324043,44.431110 42.180252,44.223469 41.979462,43.727661 
	C41.828079,43.623890 41.676697,43.520123 41.525314,43.416351 
	C41.648952,43.651669 41.772591,43.886982 41.985722,44.387444 
M135.068192,44.639187 
	C135.374863,45.075535 135.681549,45.511883 136.300598,46.242859 
	C136.680878,46.337433 137.061142,46.432003 137.441422,46.526577 
	C137.001724,46.302536 136.562042,46.078495 135.940277,45.348114 
	C135.634308,44.910591 135.328323,44.473072 135.002060,43.602562 
	C134.887329,43.246780 134.772598,42.891003 134.657883,42.535221 
	C134.521698,42.589111 134.385513,42.642998 134.249329,42.696888 
	C134.462112,43.175098 134.674881,43.653305 135.068192,44.639187 
M82.931541,39.812817 
	C82.931541,39.812817 82.905777,40.008587 82.959183,40.515038 
	C83.194717,41.022934 83.430252,41.530830 83.665787,42.038723 
	C83.854050,41.918148 84.042313,41.797569 84.230568,41.676994 
	C83.822441,41.087318 83.414307,40.497646 82.931541,39.812817 
M153.978760,43.398617 
	C154.141144,43.481075 154.303543,43.563534 154.465927,43.645996 
	C154.319855,43.441174 154.173782,43.236347 154.024323,42.326935 
	C153.918427,41.190208 153.812531,40.053482 153.706619,38.916752 
	C153.420898,38.978695 153.135178,39.040638 152.849457,39.102581 
	C153.195541,40.446510 153.541626,41.790436 153.978760,43.398617 
M96.029312,41.589100 
	C95.863228,41.506809 95.697151,41.424515 95.531067,41.342220 
	C95.680153,41.547207 95.829239,41.752190 96.130775,42.594837 
	C97.207115,43.806747 98.283463,45.018658 99.359802,46.230568 
	C99.626648,45.936760 99.893494,45.642956 100.160339,45.349152 
	C98.813164,44.184978 97.465996,43.020805 96.029312,41.589100 
M206.135849,57.672825 
	C208.748367,61.959698 211.541687,61.424862 214.487000,58.017277 
	C214.896088,57.543983 215.482773,57.224213 216.687897,56.964756 
	C218.555328,55.399925 220.609711,54.000526 222.206421,52.196117 
	C222.936386,51.371197 223.227402,49.617455 222.914581,48.512196 
	C222.001297,45.285282 219.988983,42.242069 219.665863,39.001381 
	C218.942841,31.750111 210.527191,25.533674 217.883301,16.951166 
	C212.898605,16.951166 209.112915,16.951166 205.514084,16.951166 
	C206.002563,20.293522 207.375092,23.507999 206.677307,26.182301 
	C205.175110,31.939636 202.863419,37.534046 200.412262,42.983379 
	C197.278854,49.949440 198.539490,53.668709 206.135849,57.672825 
M177.002411,42.507309 
	C177.002411,41.043282 177.002411,39.579258 177.002411,38.115231 
	C176.529907,38.120945 176.057404,38.126659 175.584900,38.132374 
	C175.414856,40.623920 175.244812,43.115463 175.074753,45.607010 
	C175.504013,45.658054 175.933273,45.709099 176.362534,45.760143 
	C176.571991,44.911999 176.781433,44.063858 177.002411,42.507309 
M89.390953,39.111767 
	C88.759270,40.565449 88.127586,42.019131 87.495903,43.472813 
	C87.874794,43.592323 88.253693,43.711838 88.632591,43.831348 
	C89.583961,41.671288 90.535332,39.511227 91.486694,37.351166 
	C91.182983,37.216614 90.879272,37.082062 90.575554,36.947510 
	C90.262039,37.482380 89.948517,38.017254 89.390953,39.111767 
M171.993484,36.627987 
	C171.888260,36.109844 171.783035,35.591705 171.677795,35.073563 
	C171.574615,35.100723 171.471436,35.127880 171.368256,35.155037 
	C171.368256,38.366241 171.368256,41.577442 171.368256,44.788647 
	C171.579391,44.780552 171.790527,44.772457 172.001663,44.764362 
	C172.001663,42.288799 172.001663,39.813236 171.993484,36.627987 
M47.602310,43.233120 
	C47.750290,42.385895 47.898270,41.538670 48.046253,40.691444 
	C47.340557,40.741997 46.634857,40.792553 45.929161,40.843109 
	C46.305317,41.601833 46.681473,42.360554 47.602310,43.233120 
M37.578014,45.637680 
	C37.436432,44.839180 37.294849,44.040680 37.153267,43.242180 
	C36.766861,43.347168 36.380459,43.452156 35.994053,43.557144 
	C36.397854,44.354206 36.801655,45.151272 37.578014,45.637680 
M36.305473,34.579918 
	C36.407318,35.318977 36.509163,36.058041 36.611008,36.797100 
	C36.985935,36.665611 37.360863,36.534119 37.735794,36.402626 
	C37.376709,35.697353 37.017624,34.992081 36.305473,34.579918 
M36.660755,25.281786 
	C36.567135,26.090239 36.473511,26.898691 36.379890,27.707146 
	C36.759262,27.684591 37.138634,27.662037 37.518005,27.639484 
	C37.384083,26.864895 37.250156,26.090307 36.660755,25.281786 
M93.848808,34.546761 
	C93.999359,35.465279 94.149910,36.383793 94.300461,37.302311 
	C94.583496,37.218445 94.866524,37.134579 95.149551,37.050713 
	C94.828873,36.126431 94.508194,35.202145 93.848808,34.546761 
M132.362076,34.393501 
	C131.737640,35.092800 131.113205,35.792099 130.488754,36.491398 
	C130.745682,36.676796 131.002609,36.862194 131.259537,37.047592 
	C131.720123,36.261768 132.180725,35.475941 132.362076,34.393501 
M73.727829,46.030018 
	C73.998322,45.617458 74.268806,45.204895 74.539299,44.792336 
	C74.176003,44.666229 73.812714,44.540123 73.449409,44.414017 
	C73.435616,44.856396 73.421822,45.298775 73.727829,46.030018 
M81.719574,45.816914 
	C81.439468,45.332279 81.159363,44.847645 80.879257,44.363010 
	C80.626160,44.517025 80.373070,44.671040 80.119980,44.825054 
	C80.686264,45.307365 81.252548,45.789677 81.719574,45.816914 
M100.093544,30.922375 
	C99.900459,31.493353 99.707367,32.064331 99.514275,32.635307 
	C99.877525,32.661198 100.240768,32.687092 100.604019,32.712982 
	C100.518906,31.995104 100.433792,31.277225 100.093544,30.922375 
M157.645981,37.441589 
	C158.150543,37.437675 158.683884,37.522194 159.141251,37.373302 
	C159.270187,37.331326 159.176529,36.605499 159.184967,36.193329 
	C158.715866,36.472828 158.246765,36.752327 157.645981,37.441589 
M51.470768,42.871773 
	C51.275745,42.544235 51.080723,42.216698 50.885700,41.889160 
	C50.765446,41.984482 50.531445,42.147774 50.541779,42.165062 
	C50.736378,42.490715 50.959896,42.799088 51.470768,42.871773 
M68.011055,42.116394 
	C67.966751,42.464096 67.922455,42.811794 67.878151,43.159496 
	C68.014412,43.162464 68.268387,43.178757 68.269791,43.166470 
	C68.309227,42.817928 68.323227,42.466507 68.011055,42.116394 
M83.534416,52.327713 
	C83.858757,52.390320 84.183090,52.452927 84.507431,52.515533 
	C84.438820,52.117531 84.370201,51.719524 84.301590,51.321518 
	C84.076134,51.537895 83.850677,51.754276 83.534416,52.327713 
M51.658535,34.393913 
	C51.772530,34.101448 51.886528,33.808979 52.000523,33.516514 
	C51.868748,33.470230 51.736969,33.423943 51.605194,33.377655 
	C51.517654,33.677876 51.430119,33.978100 51.658535,34.393913 
M144.997360,33.484505 
	C144.706238,33.648029 144.415115,33.811554 144.124008,33.975086 
	C144.212494,34.084858 144.360199,34.299984 144.380554,34.288540 
	C144.668747,34.126560 144.939667,33.933830 144.997360,33.484505 
M181.921555,35.951038 
	C182.274521,35.853989 182.675919,35.825127 182.956406,35.625984 
	C183.067062,35.547413 182.908218,35.089252 182.872086,34.803940 
	C182.551483,35.069065 182.230865,35.334187 181.921555,35.951038 
M176.154587,33.737942 
	C176.040573,33.895912 175.926559,34.053886 175.812546,34.211857 
	C175.979385,34.112225 176.146210,34.012592 176.154587,33.737942 
M126.080154,37.954052 
	C126.195045,37.706585 126.309944,37.459118 126.424835,37.211651 
	C126.178024,37.212154 125.931221,37.212654 125.684410,37.213154 
	C125.718590,37.467606 125.752769,37.722057 126.080154,37.954052 
M111.403419,30.813299 
	C111.306900,30.558657 111.210381,30.304014 111.113861,30.049372 
	C110.921661,30.186138 110.729454,30.322905 110.537254,30.459673 
	C110.746216,30.634647 110.955177,30.809624 111.403419,30.813299 
M116.595970,39.726929 
	C116.761368,39.749325 116.926773,39.771721 117.092171,39.794117 
	C116.977264,39.723911 116.862350,39.653706 116.595970,39.726929 
M167.725845,37.398853 
	C167.843018,37.334705 167.960205,37.270561 168.077377,37.206417 
	C167.982422,37.105755 167.887482,37.005089 167.792526,36.904423 
	C167.722717,37.018906 167.652908,37.133389 167.725845,37.398853 
M81.595406,37.040474 
	C81.759300,37.080204 81.923203,37.119934 82.087097,37.159664 
	C81.974747,37.076546 81.862389,36.993431 81.595406,37.040474 
M73.676109,33.301781 
	C73.595787,33.456409 73.515472,33.611038 73.435150,33.765667 
	C73.534424,33.677685 73.633690,33.589703 73.676109,33.301781 
M134.564224,37.044064 
	C134.564224,37.044064 134.477478,37.077866 134.564224,37.044064 
M163.508423,36.912373 
	C163.508423,36.912373 163.577957,36.973667 163.508423,36.912373 
M76.433739,34.954380 
	C76.433739,34.954380 76.522789,34.919437 76.433739,34.954380 
M78.567268,40.046211 
	C78.567268,40.046211 78.477066,40.081722 78.567268,40.046211 
M145.419800,38.056080 
	C145.419800,38.056080 145.423508,37.966003 145.419800,38.056080 
M115.498741,42.473473 
	C115.498741,42.473473 115.512764,42.513050 115.498741,42.473473 
M137.473770,33.501274 
	C137.473770,33.501274 137.513290,33.487255 137.473770,33.501274 
M156.474167,45.501434 
	C156.474167,45.501434 156.513199,45.487743 156.474167,45.501434 
M86.501305,46.525871 
	C86.501305,46.525871 86.487419,46.486420 86.501305,46.525871 
M85.501480,48.525452 
	C85.501480,48.525452 85.487846,48.486534 85.501480,48.525452 
z"/>
<path fill="#FF6B26" opacity="1.000000" stroke="none" 
	d="
M205.842636,57.007156 
	C198.539490,53.668709 197.278854,49.949440 200.412262,42.983379 
	C202.863419,37.534046 205.175110,31.939636 206.677307,26.182301 
	C207.375092,23.507999 206.002563,20.293522 205.514084,16.951166 
	C209.112915,16.951166 212.898605,16.951166 217.883301,16.951166 
	C210.527191,25.533674 218.942841,31.750111 219.665863,39.001381 
	C219.988983,42.242069 222.001297,45.285282 222.914581,48.512196 
	C223.227402,49.617455 222.936386,51.371197 222.206421,52.196117 
	C220.609711,54.000526 218.555328,55.399925 216.157745,56.549587 
	C215.079056,51.825386 214.747787,47.471165 213.866074,43.231411 
	C213.550415,41.713654 212.072113,39.522568 210.831421,39.304260 
	C208.308273,38.860302 206.933136,40.390633 206.918579,43.411217 
	C206.896729,47.944820 206.233261,52.475330 205.842636,57.007156 
z"/>
<path fill="#FFFCFB" opacity="1.000000" stroke="none" 
	d="
M205.989243,57.339989 
	C206.233261,52.475330 206.896729,47.944820 206.918579,43.411217 
	C206.933136,40.390633 208.308273,38.860302 210.831421,39.304260 
	C212.072113,39.522568 213.550415,41.713654 213.866074,43.231411 
	C214.747787,47.471165 215.079056,51.825386 215.807419,56.483894 
	C215.482773,57.224213 214.896088,57.543983 214.487000,58.017277 
	C211.541687,61.424862 208.748367,61.959698 205.989243,57.339989 
z"/>
<path fill="#010001" opacity="1.000000" stroke="none" 
	d="
M176.996643,42.861511 
	C176.781433,44.063858 176.571991,44.911999 176.362534,45.760143 
	C175.933273,45.709099 175.504013,45.658054 175.074753,45.607010 
	C175.244812,43.115463 175.414856,40.623920 175.584900,38.132374 
	C176.057404,38.126659 176.529907,38.120945 177.002411,38.115231 
	C177.002411,39.579258 177.002411,41.043282 176.996643,42.861511 
z"/>
<path fill="#010001" opacity="1.000000" stroke="none" 
	d="
M89.512978,38.831947 
	C89.948517,38.017254 90.262039,37.482380 90.575554,36.947510 
	C90.879272,37.082062 91.182983,37.216614 91.486694,37.351166 
	C90.535332,39.511227 89.583961,41.671288 88.632591,43.831348 
	C88.253693,43.711838 87.874794,43.592323 87.495903,43.472813 
	C88.127586,42.019131 88.759270,40.565449 89.512978,38.831947 
z"/>
<path fill="#010001" opacity="1.000000" stroke="none" 
	d="
M171.997574,36.982830 
	C172.001663,39.813236 172.001663,42.288799 172.001663,44.764362 
	C171.790527,44.772457 171.579391,44.780552 171.368256,44.788647 
	C171.368256,41.577442 171.368256,38.366241 171.368256,35.155037 
	C171.471436,35.127880 171.574615,35.100723 171.677795,35.073563 
	C171.783035,35.591705 171.888260,36.109844 171.997574,36.982830 
z"/>
<path fill="#010001" opacity="1.000000" stroke="none" 
	d="
M47.329971,43.176201 
	C46.681473,42.360554 46.305317,41.601833 45.929161,40.843109 
	C46.634857,40.792553 47.340557,40.741997 48.046249,40.691444 
	C47.898270,41.538670 47.750290,42.385895 47.329971,43.176201 
z"/>
<path fill="#010001" opacity="1.000000" stroke="none" 
	d="
M96.118820,41.856632 
	C97.465996,43.020805 98.813164,44.184978 100.160339,45.349152 
	C99.893494,45.642956 99.626648,45.936760 99.359802,46.230568 
	C98.283463,45.018658 97.207115,43.806747 96.092499,42.254829 
	C96.054230,41.914822 96.118820,41.856632 96.118820,41.856632 
z"/>
<path fill="#010001" opacity="1.000000" stroke="none" 
	d="
M37.391735,45.793007 
	C36.801655,45.151272 36.397854,44.354206 35.994053,43.557144 
	C36.380459,43.452156 36.766861,43.347168 37.153267,43.242180 
	C37.294849,44.040680 37.436432,44.839180 37.391735,45.793007 
z"/>
<path fill="#010001" opacity="1.000000" stroke="none" 
	d="
M36.482006,34.433365 
	C37.017624,34.992081 37.376709,35.697353 37.735794,36.402626 
	C37.360863,36.534119 36.985935,36.665611 36.611008,36.797100 
	C36.509163,36.058041 36.407318,35.318977 36.482006,34.433365 
z"/>
<path fill="#010001" opacity="1.000000" stroke="none" 
	d="
M36.888496,25.298752 
	C37.250156,26.090307 37.384083,26.864895 37.518005,27.639484 
	C37.138634,27.662037 36.759262,27.684591 36.379890,27.707146 
	C36.473511,26.898691 36.567135,26.090239 36.888496,25.298752 
z"/>
<path fill="#010001" opacity="1.000000" stroke="none" 
	d="
M94.018158,34.412312 
	C94.508194,35.202145 94.828873,36.126431 95.149551,37.050713 
	C94.866524,37.134579 94.583496,37.218445 94.300461,37.302311 
	C94.149910,36.383793 93.999359,35.465279 94.018158,34.412312 
z"/>
<path fill="#010001" opacity="1.000000" stroke="none" 
	d="
M132.501694,34.541809 
	C132.180725,35.475941 131.720123,36.261768 131.259537,37.047592 
	C131.002609,36.862194 130.745682,36.676796 130.488754,36.491398 
	C131.113205,35.792099 131.737640,35.092800 132.501694,34.541809 
z"/>
<path fill="#010001" opacity="1.000000" stroke="none" 
	d="
M73.567924,45.885586 
	C73.421822,45.298775 73.435616,44.856396 73.449417,44.414017 
	C73.812714,44.540123 74.176003,44.666229 74.539299,44.792336 
	C74.268806,45.204895 73.998322,45.617458 73.567924,45.885586 
z"/>
<path fill="#010001" opacity="1.000000" stroke="none" 
	d="
M81.769211,46.044449 
	C81.252548,45.789677 80.686264,45.307365 80.119980,44.825054 
	C80.373070,44.671040 80.626160,44.517025 80.879257,44.363010 
	C81.159363,44.847645 81.439468,45.332279 81.769211,46.044449 
z"/>
<path fill="#010001" opacity="1.000000" stroke="none" 
	d="
M100.221115,30.740860 
	C100.433792,31.277225 100.518906,31.995104 100.604019,32.712982 
	C100.240768,32.687092 99.877525,32.661198 99.514275,32.635307 
	C99.707367,32.064331 99.900459,31.493353 100.221115,30.740860 
z"/>
<path fill="#010001" opacity="1.000000" stroke="none" 
	d="
M157.711823,37.236710 
	C158.246765,36.752327 158.715866,36.472828 159.184967,36.193329 
	C159.176529,36.605499 159.270187,37.331326 159.141251,37.373302 
	C158.683884,37.522194 158.150543,37.437675 157.711823,37.236710 
z"/>
<path fill="#010001" opacity="1.000000" stroke="none" 
	d="
M51.324074,42.991421 
	C50.959896,42.799088 50.736378,42.490715 50.541779,42.165062 
	C50.531445,42.147774 50.765446,41.984482 50.885700,41.889160 
	C51.080723,42.216698 51.275745,42.544235 51.324074,42.991421 
z"/>
<path fill="#010001" opacity="1.000000" stroke="none" 
	d="
M153.887726,43.134361 
	C153.541626,41.790436 153.195541,40.446510 152.849457,39.102581 
	C153.135178,39.040638 153.420898,38.978695 153.706619,38.916752 
	C153.812531,40.053482 153.918427,41.190208 153.988403,42.701389 
	C153.952499,43.075844 153.887726,43.134361 153.887726,43.134361 
z"/>
<path fill="#010001" opacity="1.000000" stroke="none" 
	d="
M68.176216,42.115974 
	C68.323227,42.466507 68.309227,42.817928 68.269791,43.166470 
	C68.268387,43.178757 68.014412,43.162464 67.878151,43.159496 
	C67.922455,42.811794 67.966751,42.464096 68.176216,42.115974 
z"/>
<path fill="#010001" opacity="1.000000" stroke="none" 
	d="
M83.579819,52.149185 
	C83.850677,51.754276 84.076134,51.537895 84.301590,51.321518 
	C84.370201,51.719524 84.438820,52.117531 84.507431,52.515533 
	C84.183090,52.452927 83.858757,52.390320 83.579819,52.149185 
z"/>
<path fill="#010001" opacity="1.000000" stroke="none" 
	d="
M51.500557,34.336117 
	C51.430119,33.978100 51.517654,33.677876 51.605194,33.377655 
	C51.736969,33.423943 51.868748,33.470230 52.000523,33.516514 
	C51.886528,33.808979 51.772530,34.101448 51.500557,34.336117 
z"/>
<path fill="#010001" opacity="1.000000" stroke="none" 
	d="
M145.106079,33.616524 
	C144.939667,33.933830 144.668747,34.126560 144.380554,34.288540 
	C144.360199,34.299984 144.212494,34.084858 144.124008,33.975082 
	C144.415115,33.811554 144.706238,33.648029 145.106079,33.616524 
z"/>
<path fill="#010001" opacity="1.000000" stroke="none" 
	d="
M181.915909,35.775177 
	C182.230865,35.334187 182.551483,35.069065 182.872086,34.803940 
	C182.908218,35.089252 183.067062,35.547413 182.956406,35.625984 
	C182.675919,35.825127 182.274521,35.853989 181.915909,35.775177 
z"/>
<path fill="#010001" opacity="1.000000" stroke="none" 
	d="
M176.233826,33.825451 
	C176.146210,34.012592 175.979385,34.112225 175.812546,34.211857 
	C175.926559,34.053886 176.040573,33.895912 176.233826,33.825451 
z"/>
<path fill="#010001" opacity="1.000000" stroke="none" 
	d="
M83.006172,39.907970 
	C83.414307,40.497646 83.822441,41.087318 84.230568,41.676994 
	C84.042313,41.797569 83.854050,41.918148 83.665787,42.038723 
	C83.430252,41.530830 83.194717,41.022934 82.962090,40.241158 
	C82.964996,39.967278 83.006172,39.907970 83.006172,39.907970 
z"/>
<path fill="#010001" opacity="1.000000" stroke="none" 
	d="
M125.933556,37.965279 
	C125.752769,37.722057 125.718590,37.467606 125.684410,37.213154 
	C125.931221,37.212654 126.178024,37.212154 126.424835,37.211655 
	C126.309944,37.459118 126.195045,37.706585 125.933556,37.965279 
z"/>
<path fill="#010001" opacity="1.000000" stroke="none" 
	d="
M111.283783,30.898949 
	C110.955177,30.809624 110.746216,30.634647 110.537254,30.459671 
	C110.729454,30.322905 110.921661,30.186138 111.113861,30.049372 
	C111.210381,30.304014 111.306900,30.558657 111.283783,30.898949 
z"/>
<path fill="#010001" opacity="1.000000" stroke="none" 
	d="
M136.122345,45.854454 
	C136.562042,46.078495 137.001724,46.302536 137.441422,46.526577 
	C137.061142,46.432003 136.680878,46.337433 136.180969,46.076447 
	C136.061356,45.910038 136.122345,45.854454 136.122345,45.854454 
z"/>
<path fill="#010001" opacity="1.000000" stroke="none" 
	d="
M116.671707,39.655212 
	C116.862350,39.653706 116.977264,39.723911 117.092171,39.794117 
	C116.926773,39.771721 116.761368,39.749325 116.671707,39.655212 
z"/>
<path fill="#010001" opacity="1.000000" stroke="none" 
	d="
M167.654480,37.323364 
	C167.652908,37.133389 167.722717,37.018906 167.792526,36.904427 
	C167.887482,37.005089 167.982422,37.105755 168.077377,37.206413 
	C167.960205,37.270561 167.843018,37.334705 167.654480,37.323364 
z"/>
<path fill="#010001" opacity="1.000000" stroke="none" 
	d="
M134.887665,44.131516 
	C134.674881,43.653305 134.462112,43.175098 134.249329,42.696888 
	C134.385513,42.642998 134.521698,42.589111 134.657883,42.535221 
	C134.772598,42.891003 134.887329,43.246780 134.976135,43.838882 
	C134.950195,44.075203 134.887665,44.131516 134.887665,44.131516 
z"/>
<path fill="#010001" opacity="1.000000" stroke="none" 
	d="
M81.672722,36.975395 
	C81.862389,36.993431 81.974747,37.076546 82.087097,37.159664 
	C81.923203,37.119934 81.759300,37.080204 81.672722,36.975395 
z"/>
<path fill="#010001" opacity="1.000000" stroke="none" 
	d="
M73.704536,33.401749 
	C73.633690,33.589703 73.534424,33.677685 73.435150,33.765667 
	C73.515472,33.611038 73.595787,33.456409 73.704536,33.401749 
z"/>
<path fill="#010001" opacity="1.000000" stroke="none" 
	d="
M41.896229,44.122295 
	C41.772591,43.886982 41.648952,43.651669 41.525314,43.416351 
	C41.676697,43.520123 41.828079,43.623890 41.970612,43.895340 
	C41.961761,44.063023 41.896229,44.122295 41.896229,44.122295 
z"/>
<path fill="#010001" opacity="1.000000" stroke="none" 
	d="
M134.520844,37.060966 
	C134.477478,37.077866 134.564224,37.044064 134.520844,37.060966 
z"/>
<path fill="#010001" opacity="1.000000" stroke="none" 
	d="
M136.024780,45.929134 
	C135.681549,45.511883 135.374863,45.075535 134.977936,44.385353 
	C134.887665,44.131516 134.950195,44.075203 134.986267,44.055374 
	C135.328323,44.473072 135.634308,44.910591 136.031311,45.601284 
	C136.122345,45.854454 136.061356,45.910038 136.024780,45.929134 
z"/>
<path fill="#010001" opacity="1.000000" stroke="none" 
	d="
M41.999111,44.039425 
	C42.180252,44.223469 42.324043,44.431110 42.467838,44.638748 
	C42.307133,44.554981 42.146427,44.471210 41.940975,44.254868 
	C41.896229,44.122295 41.961761,44.063023 41.999111,44.039425 
z"/>
<path fill="#010001" opacity="1.000000" stroke="none" 
	d="
M153.990112,43.053684 
	C154.173782,43.236347 154.319855,43.441174 154.465927,43.645996 
	C154.303543,43.563534 154.141144,43.481075 153.933243,43.266487 
	C153.887726,43.134361 153.952499,43.075844 153.990112,43.053684 
z"/>
<path fill="#010001" opacity="1.000000" stroke="none" 
	d="
M163.543182,36.943020 
	C163.577957,36.973667 163.508423,36.912373 163.543182,36.943020 
z"/>
<path fill="#010001" opacity="1.000000" stroke="none" 
	d="
M96.016281,41.935997 
	C95.829239,41.752190 95.680153,41.547207 95.531067,41.342220 
	C95.697151,41.424515 95.863228,41.506809 96.074066,41.722866 
	C96.118820,41.856632 96.054230,41.914822 96.016281,41.935997 
z"/>
<path fill="#010001" opacity="1.000000" stroke="none" 
	d="
M76.478264,34.936909 
	C76.522789,34.919437 76.433739,34.954380 76.478264,34.936909 
z"/>
<path fill="#010001" opacity="1.000000" stroke="none" 
	d="
M78.522171,40.063965 
	C78.477066,40.081722 78.567268,40.046211 78.522171,40.063965 
z"/>
<path fill="#010001" opacity="1.000000" stroke="none" 
	d="
M145.421661,38.011040 
	C145.423508,37.966003 145.419800,38.056080 145.421661,38.011040 
z"/>
<path fill="#010001" opacity="1.000000" stroke="none" 
	d="
M115.505753,42.493263 
	C115.512764,42.513050 115.498741,42.473473 115.505753,42.493263 
z"/>
<path fill="#010001" opacity="1.000000" stroke="none" 
	d="
M137.493530,33.494263 
	C137.513290,33.487255 137.473770,33.501274 137.493530,33.494263 
z"/>
<path fill="#010001" opacity="1.000000" stroke="none" 
	d="
M82.935387,39.987930 
	C82.905777,40.008587 82.931541,39.812817 82.968857,39.860394 
	C83.006172,39.907970 82.964996,39.967278 82.935387,39.987930 
z"/>
<path fill="#010001" opacity="1.000000" stroke="none" 
	d="
M156.493683,45.494591 
	C156.513199,45.487743 156.474167,45.501434 156.493683,45.494591 
z"/>
<path fill="#010001" opacity="1.000000" stroke="none" 
	d="
M86.494362,46.506145 
	C86.487419,46.486420 86.501305,46.525871 86.494362,46.506145 
z"/>
<path fill="#010001" opacity="1.000000" stroke="none" 
	d="
M85.494659,48.505993 
	C85.487846,48.486534 85.501480,48.525452 85.494659,48.505993 
z"/>
</svg>